<svg width="800" height="450" viewBox="0 0 800 450" fill="none" xmlns="http://www.w3.org/2000/svg">
  <rect width="800" height="450" fill="#1E1E2E"/>
  <rect x="20" y="20" width="760" height="60" rx="8" fill="#2D2D3D"/>
  <text x="40" y="58" fill="#A78BFA" font-family="system-ui" font-size="20" font-weight="600">AI Nurse Florence</text>
  <text x="220" y="58" fill="#6B7280" font-family="system-ui" font-size="14">Clinical Wizards Dashboard</text>
  <rect x="20" y="100" width="240" height="140" rx="8" fill="#2D2D3D"/>
  <rect x="30" y="110" width="4" height="120" rx="2" fill="#8B5CF6"/>
  <text x="44" y="135" fill="#E5E7EB" font-family="system-ui" font-size="14" font-weight="500">SBAR Report</text>
  <text x="44" y="155" fill="#9CA3AF" font-family="system-ui" font-size="12">4 steps</text>
  <rect x="280" y="100" width="240" height="140" rx="8" fill="#2D2D3D"/>
  <rect x="290" y="110" width="4" height="120" rx="2" fill="#8B5CF6"/>
  <text x="304" y="135" fill="#E5E7EB" font-family="system-ui" font-size="14" font-weight="500">Med Reconciliation</text>
  <text x="304" y="155" fill="#9CA3AF" font-family="system-ui" font-size="12">5 steps</text>
  <rect x="540" y="100" width="240" height="140" rx="8" fill="#2D2D3D"/>
  <rect x="550" y="110" width="4" height="120" rx="2" fill="#8B5CF6"/>
  <text x="564" y="135" fill="#E5E7EB" font-family="system-ui" font-size="14" font-weight="500">Safety Assessment</text>
  <text x="564" y="155" fill="#9CA3AF" font-family="system-ui" font-size="12">6 steps</text>
  <rect x="20" y="260" width="240" height="140" rx="8" fill="#2D2D3D"/>
  <rect x="30" y="270" width="4" height="120" rx="2" fill="#06B6D4"/>
  <text x="44" y="295" fill="#E5E7EB" font-family="system-ui" font-size="14" font-weight="500">Critical Care</text>
  <text x="44" y="315" fill="#9CA3AF" font-family="system-ui" font-size="12">4 steps</text>
  <rect x="280" y="260" width="240" height="140" rx="8" fill="#2D2D3D"/>
  <rect x="290" y="270" width="4" height="120" rx="2" fill="#06B6D4"/>
  <text x="304" y="295" fill="#E5E7EB" font-family="system-ui" font-size="14" font-weight="500">Procedure Guide</text>
  <text x="304" y="315" fill="#9CA3AF" font-family="system-ui" font-size="12">5 steps</text>
  <rect x="540" y="260" width="240" height="140" rx="8" fill="#2D2D3D"/>
  <rect x="550" y="270" width="4" height="120" rx="2" fill="#06B6D4"/>
  <text x="564" y="295" fill="#E5E7EB" font-family="system-ui" font-size="14" font-weight="500">Epic Integration</text>
  <text x="564" y="315" fill="#9CA3AF" font-family="system-ui" font-size="12">4 steps</text>
  <text x="680" y="435" fill="#4B5563" font-family="system-ui" font-size="12">14+ clinical wizards</text>
</svg>
